<svg width="22" height="22" viewBox="0 0 22 22" fill="none" xmlns="http://www.w3.org/2000/svg">
    <path d="M15 7L13.5 8.5M14.469 15.856L15.856 14.469C16.51 13.815 16.837 13.488 17.244 13.488C17.651 13.488 17.977 13.815 18.631 14.468L20.019 15.856C20.673 16.51 21 16.837 21 17.244C21 17.651 20.673 17.977 20.019 18.631L18.63 20.02C17.976 20.674 17.65 21.001 17.243 21.001C16.836 21.001 16.509 20.674 15.855 20.02L14.47 18.63C13.816 17.976 13.489 17.65 13.489 17.243C13.489 16.836 13.816 16.509 14.469 15.855M15 15L13 13M9 9L7 7M15.201 6.799C15.5817 7.17983 16.0338 7.48192 16.5313 7.68803C17.0288 7.89414 17.562 8.00022 18.1005 8.00022C18.639 8.00022 19.1722 7.89414 19.6697 7.68803C20.1672 7.48192 20.6193 7.17983 21 6.799L15.201 1C14.8202 1.38073 14.5181 1.83276 14.312 2.33026C14.1059 2.82776 13.9998 3.36099 13.9998 3.8995C13.9998 4.43801 14.1059 4.97124 14.312 5.46874C14.5181 5.96624 14.8202 6.41827 15.201 6.799ZM13.832 12.001C14.434 11.399 14.735 11.098 14.735 10.724C14.735 10.349 14.435 10.048 13.832 9.446L12.555 8.17C11.953 7.568 11.652 7.267 11.277 7.267C10.903 7.267 10.602 7.567 10 8.17L5.794 12.376C5.53555 12.6261 5.32946 12.9251 5.18775 13.2556C5.04603 13.5862 4.97152 13.9416 4.96856 14.3012C4.96561 14.6609 5.03426 15.0175 5.17051 15.3503C5.30677 15.6831 5.50791 15.9855 5.76221 16.2398C6.01651 16.4941 6.31889 16.6952 6.65171 16.8315C6.98453 16.9677 7.34114 17.0364 7.70077 17.0334C8.06039 17.0305 8.41583 16.956 8.74636 16.8143C9.0769 16.6725 9.37592 16.4664 9.626 16.208L13.832 12.001ZM1.981 3.369L3.37 1.98C4.023 1.327 4.349 1 4.756 1C5.163 1 5.49 1.327 6.144 1.981L7.53 3.37C8.184 4.024 8.511 4.35 8.511 4.757C8.511 5.164 8.184 5.491 7.531 6.145L6.143 7.53C5.489 8.184 5.162 8.511 4.755 8.511C4.348 8.511 4.022 8.184 3.368 7.531L1.98 6.143C1.327 5.49 1 5.163 1 4.756C1 4.349 1.327 4.023 1.981 3.369Z" stroke="white" stroke-width="1.5" stroke-linecap="round" stroke-linejoin="round"/>
</svg>
